<?xml version="1.0" encoding="UTF-8"?>
<svg version="1.1" xmlns="http://www.w3.org/2000/svg" width="512" height="512">
<path d="M0 0 C5.12830577 3.31541621 9.28608422 7.87075112 13.57761383 12.1782093 C14.68479313 13.27504303 15.7927922 14.37104978 16.90154266 15.46629524 C19.89642833 18.430251 22.87842641 21.40685198 25.85725307 24.38693738 C28.35130201 26.88015312 30.85103956 29.36762839 33.35059094 31.85532564 C39.250684 37.72808637 45.13973932 43.61175968 51.02243805 49.50193977 C57.07702934 55.56377065 63.15165777 61.60498236 69.23624587 67.6366902 C74.47282585 72.82940728 79.69569389 78.03564881 84.90812516 83.25260538 C88.01560838 86.36240382 91.12810201 89.46672124 94.25430298 92.55771255 C97.19544691 95.46675922 100.11903081 98.39240561 103.0303936 101.33124733 C104.09658136 102.40186736 105.16867536 103.46664581 106.24726295 104.52477264 C114.06403793 112.20331436 119.11463302 119.37312464 119.85984039 130.58812141 C119.39926298 139.9631003 115.13762152 147.23389324 108.35984039 153.52562141 C104.86391236 155.89859797 101.18885492 157.80664424 97.42234039 159.71312141 C95.26716049 160.84158471 93.11221916 161.97050376 90.95749664 163.09984016 C89.86066559 163.66751106 88.76383453 164.23518196 87.63376617 164.82005501 C82.50730173 167.49070979 77.43569418 170.26035818 72.35984039 173.02562141 C70.36012767 174.10948494 68.36012682 175.19281703 66.35984039 176.27562141 C64.87484039 177.07999641 64.87484039 177.07999641 63.35984039 177.90062141 C54.35984039 182.77562142 54.35984039 182.77562142 51.35935211 184.40086555 C49.36095699 185.48334313 47.36258456 186.56586261 45.36423492 187.64842415 C40.33986629 190.37019594 35.3150955 193.09122026 30.28952789 195.81077766 C28.27126814 196.90316908 26.25303886 197.99561679 24.23484039 199.08812141 C23.24475983 199.62404915 22.25467926 200.15997688 21.23459625 200.71214485 C15.38853995 203.87869882 9.54934208 207.05743638 3.71677399 210.24876595 C0.98192984 211.74306223 -1.7566027 213.23041338 -4.49562836 214.71702766 C-7.82872896 216.52788558 -11.14125673 218.36948206 -14.44094086 220.24046516 C-23.77290818 225.47311868 -31.03544159 229.04595975 -41.82765961 226.52562141 C-48.50829255 224.2078508 -52.61563683 219.73333895 -56.01515961 213.65062141 C-59.17371643 206.54045022 -59.02204099 200.47732285 -56.91750336 193.08030891 C-52.93885071 185.12300363 -46.94169213 181.62909898 -39.14015961 177.83812141 C-37.06362497 176.79325878 -34.98812803 175.74633169 -32.91359711 174.69749641 C-31.3391684 173.90762337 -31.3391684 173.90762337 -29.73293304 173.10179329 C-25.01991454 170.699895 -20.394008 168.14743809 -15.76515961 165.58812141 C-7.94652408 161.2880127 -0.06780446 157.12110394 7.85984039 153.02562141 C18.64819209 147.45071934 29.35034817 141.72988 39.96921539 135.83812141 C41.59507666 134.9454917 43.23104464 134.07108007 44.87546539 133.21312141 C45.67468414 132.79030891 46.47390289 132.36749641 47.29734039 131.93187141 C48.00761383 131.56384407 48.71788727 131.19581673 49.44968414 130.81663704 C51.76608125 129.25105576 52.98900274 127.97293189 54.35984039 125.52562141 C54.69742643 122.19689079 54.80486742 120.23461834 53.00275421 117.36357307 C52.32443542 116.66198067 51.64611664 115.96038826 50.94724274 115.23753548 C50.11891937 114.37197029 49.29059601 113.50640511 48.43717194 112.61461067 C47.4129751 111.58337562 46.38705034 110.55385516 45.35984039 109.52562141 C44.76721657 108.92569878 44.17459274 108.32577614 43.56401062 107.70767403 C39.21160527 103.30310128 34.8239776 98.9349079 30.42507553 94.57682228 C27.91679 92.09077913 25.41267826 89.60060125 22.90973663 87.10917854 C15.80020911 80.03305462 8.68638778 72.9612903 1.56247711 65.89964485 C-2.81149998 61.563313 -7.1781319 57.21970016 -11.54014206 52.87133217 C-13.19835926 51.22115851 -14.8593472 49.57376418 -16.52316666 47.92923927 C-18.84432612 45.6345605 -21.15603565 43.33074207 -23.4658432 41.02464485 C-24.1515741 40.35127083 -24.83730499 39.6778968 -25.54381561 38.98411751 C-31.0522614 33.45227121 -34.27303625 28.20644427 -34.89015961 20.33812141 C-34.38726709 12.6690105 -32.30095572 7.15488986 -26.51125336 1.96702766 C-18.70595776 -4.04582009 -8.65555298 -4.47829305 0 0 Z " fill="#000000" transform="translate(245.6401596069336,255.47437858581543)"/>
<path d="M0 0 C10.3297221 7.75279091 19.24334256 18.04132873 28.37109375 27.1328125 C29.24078356 27.99842678 30.11047337 28.86404106 31.00651741 29.75588608 C35.59705169 34.32568544 40.18439305 38.89866323 44.76928711 43.47412109 C48.55487101 47.25079773 52.34612519 51.02161238 56.14331055 54.78662109 C60.74785443 59.35277364 65.34254442 63.92862009 69.93019295 68.51174545 C71.6743265 70.25101253 73.42183334 71.98690381 75.17278862 73.71930313 C77.61615692 76.13834809 80.04661475 78.56968967 82.47436523 81.00439453 C83.19592804 81.71314728 83.91749084 82.42190002 84.66091919 83.15213013 C89.38410181 87.92479477 92.44230127 92.01956201 93.3984375 98.84375 C93.32369767 107.31426438 91.36375075 113.19594662 85.58984375 119.4921875 C80.63557541 124.19083021 74.61076287 125.14001616 68 125 C55.95292005 123.12822229 47.66816404 111.79922164 39.50449181 103.5796566 C37.60256936 101.66483781 35.69742403 99.7532771 33.79145813 97.84248352 C29.75396875 93.79364301 25.72045664 89.74085481 21.6875 85.6875 C16.99405113 80.97042476 12.29897262 76.25499532 7.59967995 71.54374123 C5.72363157 69.66121585 3.85062023 67.77570413 1.97770691 65.89006042 C0.83123278 64.73995501 -0.31538129 63.58998906 -1.4621582 62.44018555 C-1.98114685 61.91603058 -2.5001355 61.39187561 -3.03485107 60.85183716 C-6.4439487 57.44223946 -8.75527566 55.22321135 -13.61282349 54.35212708 C-19.77416721 54.54529598 -23.178881 59.1697657 -27.19482422 63.3659668 C-28.077258 64.25526382 -28.95969177 65.14456085 -29.86886597 66.06080627 C-31.78164565 67.99398024 -33.68548962 69.93269405 -35.57821274 71.88519859 C-38.57682805 74.97799865 -41.60439963 78.04134926 -44.63650513 81.10127258 C-49.98063655 86.50181143 -55.30009626 91.926133 -60.61413574 97.35626221 C-68.60040426 105.51688952 -76.60387969 113.66049288 -84.63344586 121.77852565 C-87.63731372 124.81737028 -90.62737008 127.86897633 -93.60686088 130.93171823 C-95.02043679 132.38108756 -96.43975885 133.82453546 -97.86172485 135.26567078 C-99.58640265 137.01394328 -101.30206873 138.77117767 -103.00622559 140.53945923 C-108.79536032 146.36355423 -114.87739742 150.94937705 -123.06640625 152.62890625 C-130.23682251 152.438144 -136.36326888 151.29334879 -141.8203125 146.3515625 C-146.45442312 141.22493771 -148.29148704 136.66083231 -148.375 129.6875 C-148.40335937 128.61886719 -148.43171875 127.55023438 -148.4609375 126.44921875 C-147.14394025 116.59406139 -140.11901561 110.5455639 -133.4074707 103.88989258 C-132.3172205 102.79421479 -131.22782145 101.69768952 -130.13920593 100.60038757 C-127.19367523 97.63669436 -124.23571963 94.68570687 -121.27474999 91.73744798 C-118.16862574 88.64149064 -115.07231805 85.53573989 -111.97441101 82.43156433 C-106.77046743 77.220354 -101.55817158 72.01760958 -96.34106445 66.81958008 C-90.32259274 60.82286368 -84.31865067 54.81188931 -78.32207423 48.79328424 C-73.16069654 43.6137112 -67.99151011 38.44202834 -62.81580609 33.27677077 C-59.73013455 30.19731291 -56.64717563 27.1152698 -53.57125282 24.02607155 C-50.67709519 21.12029622 -47.77320613 18.22459989 -44.86175728 15.33615303 C-43.79939211 14.27904392 -42.74035467 13.21857745 -41.68506241 12.1544075 C-29.68706902 0.06487964 -16.96937506 -7.71805532 0 0 Z " fill="#000000" transform="translate(268,28)"/>
<path d="M0 0 C2.83374242 1.36558888 4.89648438 2.64996231 7.11621094 4.88916016 C7.98666046 5.75983627 7.98666046 5.75983627 8.87469482 6.64810181 C9.48838928 7.27211884 10.10208374 7.89613586 10.734375 8.5390625 C11.37240051 9.17991791 12.01042603 9.82077332 12.66778564 10.48104858 C14.69994069 12.52437821 16.72502218 14.57455982 18.75 16.625 C20.1284453 18.0134786 21.50734636 19.4015049 22.88671875 20.7890625 C26.26311894 24.18748697 29.63319288 27.59207254 33 31 C31.33701391 35.32605339 28.05358189 38.22426884 24.83280945 41.42115784 C24.19351071 42.06357656 23.55421197 42.70599528 22.89554054 43.36788124 C20.74849837 45.52291138 18.59436513 47.6707097 16.44018555 49.81860352 C14.90080909 51.36068949 13.36185856 52.90320074 11.82330322 54.44610596 C7.63988705 58.63865368 3.45015209 62.82483343 -0.74099755 67.00964856 C-5.12322553 71.38681962 -9.50057911 75.7688608 -13.87870789 80.15013123 C-21.70487368 87.98017129 -29.53607755 95.80515149 -37.36926337 103.62816804 C-44.46929669 110.71926895 -51.5640743 117.81559284 -58.6550293 124.91577148 C-66.89039164 133.16180344 -75.12907106 141.40449783 -83.37272424 149.6422419 C-87.73613221 154.00253032 -92.09817412 158.36416227 -96.45672035 162.72931099 C-100.55531361 166.83367865 -104.65876301 170.93312833 -108.76602173 175.02882385 C-110.27340778 176.53356368 -111.77909127 178.04001126 -113.28294945 179.5482769 C-115.3346652 181.60545091 -117.39243117 183.65637608 -119.45185852 185.70582581 C-120.04680896 186.30523768 -120.64175939 186.90464956 -121.25473863 187.52222544 C-126.49733416 192.71560932 -130.41568115 195.38194461 -137.90039062 195.45898438 C-139.15625977 195.44834961 -139.15625977 195.44834961 -140.4375 195.4375 C-141.27087891 195.45748047 -142.10425781 195.47746094 -142.96289062 195.49804688 C-149.32205553 195.49301987 -152.95740812 193.9539727 -157.609375 189.4375 C-161.79651168 184.16056062 -163.30070084 181.055803 -163.375 174.25 C-163.41753906 172.49429688 -163.41753906 172.49429688 -163.4609375 170.703125 C-162.47089548 162.74922811 -158.04958888 157.46171655 -152.48272705 152.00170898 C-151.83002453 151.34558876 -151.177322 150.68946854 -150.50484061 150.01346588 C-148.32933482 147.83140516 -146.13990685 145.66389137 -143.95019531 143.49609375 C-142.38226334 141.92929076 -140.81521301 140.36160507 -139.24897766 138.79310608 C-135.00412707 134.54710943 -130.74707055 130.31354544 -126.48769855 126.0821228 C-122.03491217 121.65436769 -117.59347584 117.21525712 -113.15081787 112.77734375 C-105.69567604 105.33321555 -98.23359178 97.89610393 -90.76611328 90.46435547 C-83.07684046 82.81183561 -75.39180758 75.15509839 -67.71240234 67.49267578 C-67.23852094 67.01984527 -66.76463954 66.54701476 -66.27639809 66.05985606 C-63.89894444 63.6876228 -61.52157352 61.31530666 -59.14424372 58.9429493 C-39.44211963 39.28261795 -19.72576699 19.63660764 0 0 Z " fill="#000000" transform="translate(163,317)"/>
<path d="M0 0 C10.78859876 7.60656823 19.44626307 19.62352863 22.375 32.66796875 C24.50158888 49.90560743 23.35309626 65.73779347 12.46875 79.953125 C10.35952475 82.46271245 8.21975618 84.76628194 5.78125 86.9609375 C5.32878906 87.41726562 4.87632812 87.87359375 4.41015625 88.34375 C-6.61195363 98.84361527 -20.80509394 102.4802031 -35.63671875 102.20703125 C-52.23375585 101.06677679 -65.12167154 93.97340449 -76.21875 81.9609375 C-86.28535822 69.26431452 -89.05744168 54.78530877 -88.21875 38.9609375 C-86.16938995 23.76935107 -78.45577177 10.79723383 -66.65625 1.3359375 C-46.81627546 -13.17870056 -20.53456645 -12.80708487 0 0 Z " fill="#000000" transform="translate(489.21875,10.0390625)"/>
<path d="M0 0 C0.00410889 1.09989258 0.00821777 2.19978516 0.01245117 3.33300781 C0.03424322 7.4186065 0.08853258 11.5032422 0.15258789 15.58837891 C0.17576746 17.35553754 0.19016354 19.1228343 0.19555664 20.89013672 C0.20484702 23.43284173 0.24583481 25.9733744 0.29296875 28.515625 C0.2890361 29.30430969 0.28510345 30.09299438 0.28105164 30.90557861 C0.37381515 34.40238988 0.5827626 36.51131204 2.88731384 39.21051025 C7.40156794 41.80576432 11.34006311 41.54094905 16.46240234 41.48242188 C17.51502762 41.48633438 18.56765289 41.49024689 19.6521759 41.49427795 C21.93512753 41.50025081 24.21811723 41.49708685 26.50104904 41.4858551 C30.1161683 41.46860576 33.73048698 41.47609521 37.34561157 41.4901123 C46.3246278 41.51977615 55.30349164 41.50657495 64.28253174 41.49493408 C71.86939191 41.48672924 79.45590269 41.49467688 87.04271317 41.52406311 C90.60083015 41.53115511 94.15833171 41.5144801 97.71640015 41.49694824 C99.90387299 41.50265686 102.09134331 41.50947451 104.27880859 41.51757812 C105.75812111 41.50060631 105.75812111 41.50060631 107.26731873 41.48329163 C114.16056961 41.54425376 118.58556891 42.79992781 123.7421875 47.6328125 C128.6134711 54.04946882 128.81469247 58.99353952 128 67 C126.3418279 71.75144381 123.71850934 74.83567967 119.4375 77.4375 C114.75454734 79.56611485 111.27075102 80.12611101 106.13052368 80.14717102 C104.33044609 80.15790398 104.33044609 80.15790398 102.4940033 80.16885376 C101.18065506 80.17154266 99.86730682 80.17423157 98.51416016 80.17700195 C97.11445447 80.18326968 95.71475044 80.18991676 94.31504822 80.19691467 C89.72306468 80.21791537 85.13108095 80.22831124 80.5390625 80.23828125 C78.95673989 80.24232987 77.37441745 80.24644683 75.79209518 80.25063133 C68.35971098 80.26967184 60.92733666 80.28390697 53.49493277 80.2922433 C44.91965972 80.30202099 36.34464444 80.32835897 27.76946223 80.36874419 C21.13749333 80.39890495 14.50559836 80.41371201 7.87356222 80.41702431 C3.91397043 80.41937425 -0.04534561 80.42832756 -4.00486374 80.45348549 C-7.7297506 80.47677172 -11.45418022 80.48099754 -15.17912102 80.47072411 C-17.19376922 80.46999306 -19.20839425 80.48907889 -21.22294617 80.50878906 C-32.32644167 80.44484182 -32.32644167 80.44484182 -37 76 C-42.02326143 65.95347714 -41.70204718 49.30173824 -39.03118896 38.69775391 C-35.2058558 28.69007555 -11.53287696 0 0 0 Z " fill="#000000" transform="translate(384,198)"/>
</svg>
