<?xml version="1.0" standalone="no"?>
<!DOCTYPE svg PUBLIC "-//W3C//DTD SVG 20010904//EN"
 "http://www.w3.org/TR/2001/REC-SVG-20010904/DTD/svg10.dtd">
<svg version="1.0" xmlns="http://www.w3.org/2000/svg"
 width="900.000000pt" height="900.000000pt" viewBox="0 0 900.000000 900.000000"
 preserveAspectRatio="xMidYMid meet">

<g transform="translate(0.000000,900.000000) scale(0.100000,-0.100000)"
fill="#000000" stroke="none">
<path d="M1034 5862 c-88 -31 -143 -88 -170 -177 -11 -39 -15 -105 -14 -305 1
-321 -9 -297 198 -514 83 -87 161 -178 172 -201 18 -37 20 -61 20 -224 0 -215
-8 -240 -72 -241 -40 0 -58 10 -71 39 -6 15 -13 124 -16 251 l-6 225 -110 0
-110 0 0 -280 0 -280 27 -50 c33 -63 70 -98 133 -127 41 -18 67 -22 150 -22
122 0 185 23 244 90 67 76 76 124 76 394 0 338 -1 341 -229 578 -74 77 -140
151 -147 164 -9 15 -15 76 -17 176 -6 236 4 272 78 272 66 0 70 -14 70 -237 0
-161 3 -194 16 -207 22 -22 196 -23 214 -1 20 24 8 454 -14 523 -23 73 -86
135 -157 156 -71 21 -200 20 -265 -2z"/>
<path d="M1813 5862 c-104 -37 -162 -110 -183 -232 -7 -45 -10 -277 -8 -750 3
-643 4 -688 22 -737 26 -72 75 -126 144 -159 51 -25 68 -28 157 -28 89 0 106
3 157 27 89 44 138 114 158 228 7 44 10 281 8 749 l-3 685 -23 56 c-27 68 -80
125 -141 152 -66 30 -217 34 -288 9z m187 -252 c20 -20 20 -33 20 -686 0 -667
-1 -695 -34 -716 -22 -15 -76 -8 -96 12 -20 20 -20 33 -20 693 0 756 -4 717
71 717 26 0 46 -7 59 -20z"/>
<path d="M4202 5861 c-73 -25 -122 -67 -157 -136 l-30 -59 -3 -720 c-4 -825
-5 -807 74 -895 64 -71 125 -95 244 -95 84 -1 101 2 153 27 65 32 99 72 129
149 19 47 22 80 26 299 3 175 1 252 -7 267 -11 20 -20 22 -111 22 -88 0 -100
-2 -110 -19 -6 -12 -10 -108 -10 -244 0 -204 -2 -225 -18 -240 -25 -23 -74
-21 -103 2 l-24 19 0 675 c0 650 1 676 19 696 22 24 99 30 113 9 4 -7 10 -107
13 -221 4 -170 8 -209 20 -217 8 -5 54 -10 102 -10 122 0 118 -8 118 208 -1
279 -23 372 -107 441 -73 61 -222 80 -331 42z"/>
<path d="M2427 5853 c-12 -12 -8 -1607 4 -1665 22 -103 73 -169 164 -209 40
-18 69 -23 145 -23 88 -1 100 2 162 32 46 22 76 46 98 75 61 84 60 60 60 969
l0 829 -117 -3 -118 -3 -5 -806 c-5 -776 -6 -808 -24 -828 -13 -14 -31 -21
-57 -21 -73 0 -69 -49 -69 830 0 432 -3 795 -6 808 -6 21 -11 22 -118 22 -62
0 -116 -3 -119 -7z"/>
<path d="M3237 5853 c-4 -3 -7 -426 -7 -939 0 -840 2 -932 16 -938 25 -10 198
-7 214 4 13 8 15 66 18 405 2 346 5 397 18 402 9 3 21 -1 29 -8 12 -13 72
-373 111 -664 9 -66 21 -126 26 -132 11 -14 201 -19 232 -7 9 3 16 18 16 32 0
30 -80 511 -116 700 l-26 133 37 41 c21 22 47 61 59 87 20 44 21 60 21 361 l0
315 -32 62 c-38 72 -96 118 -177 139 -53 14 -426 21 -439 7z m377 -256 c27
-20 35 -84 36 -287 0 -192 -9 -254 -38 -269 -27 -13 -91 -23 -112 -16 -19 6
-20 17 -20 289 0 155 3 286 7 289 12 12 109 7 127 -6z"/>
<path d="M4792 5848 c-16 -16 -18 -1829 -2 -1859 10 -18 24 -19 273 -19 144 0
268 4 276 9 10 6 13 35 12 116 -1 60 -4 112 -7 116 -3 5 -72 9 -154 9 -126 0
-149 2 -154 16 -3 9 -6 136 -6 284 0 208 3 270 13 278 7 6 56 13 108 14 l94 3
0 120 0 120 -94 3 c-52 1 -101 8 -108 14 -10 8 -13 67 -13 258 0 137 3 255 6
264 5 14 27 16 143 16 75 0 142 4 149 8 9 6 12 38 10 123 l-3 114 -265 3
c-198 2 -269 -1 -278 -10z"/>
<path d="M5497 5853 c-4 -3 -7 -426 -7 -939 l0 -934 25 -6 c40 -10 386 2 427
15 71 22 130 72 163 135 l30 60 3 320 c3 347 0 376 -52 425 l-24 22 27 47 c26
47 26 47 29 306 5 338 -7 405 -81 484 -58 60 -112 72 -336 72 -109 0 -201 -3
-204 -7z m374 -260 c11 -13 14 -68 14 -259 0 -275 1 -272 -77 -281 -78 -9 -78
-9 -78 277 0 137 3 255 6 264 9 23 116 22 135 -1z m9 -793 c7 -14 10 -109 8
-286 -3 -250 -4 -266 -22 -280 -24 -17 -107 -19 -124 -2 -9 9 -12 86 -12 284
0 150 3 279 6 288 5 12 21 16 70 16 53 0 65 -3 74 -20z"/>
<path d="M6286 5844 c-3 -9 -6 -428 -6 -933 0 -700 3 -920 12 -929 13 -13 173
-17 202 -6 14 5 16 47 16 365 0 233 4 359 10 359 6 0 10 -12 10 -27 0 -16 11
-102 24 -193 14 -91 34 -232 46 -315 11 -82 25 -160 30 -172 9 -22 16 -23 104
-23 64 0 97 4 104 13 10 11 35 166 100 617 l17 115 3 -359 c1 -245 6 -364 13
-373 16 -19 202 -18 218 1 8 10 10 264 9 942 l-3 929 -144 3 c-80 1 -148 -1
-153 -6 -4 -4 -26 -140 -48 -302 -22 -162 -49 -365 -60 -450 -12 -85 -24 -163
-26 -172 -6 -21 -39 -24 -51 -5 -4 6 -17 86 -29 177 -72 551 -98 736 -107 748
-7 8 -49 12 -147 12 -116 0 -139 -2 -144 -16z"/>
<path d="M7334 5846 c-5 -13 12 -83 88 -366 11 -41 38 -142 60 -225 22 -82 46
-174 54 -203 8 -29 14 -62 14 -73 0 -10 -59 -235 -131 -499 -106 -389 -129
-483 -119 -495 10 -11 37 -15 114 -15 55 0 107 4 114 9 12 7 133 474 148 569
8 56 17 45 38 -53 27 -123 114 -469 125 -499 l11 -26 125 0 c106 0 125 2 125
15 0 15 -34 141 -205 759 l-65 239 60 226 c66 244 108 396 146 533 13 48 24
94 24 102 0 14 -18 16 -125 16 l-124 0 -12 -42 c-6 -24 -31 -128 -55 -232 -25
-104 -46 -191 -48 -194 -2 -2 -7 12 -11 30 -12 56 -84 371 -93 403 l-8 30
-122 3 c-99 2 -123 0 -128 -12z"/>
<path d="M890 3822 c0 -4 9 -61 21 -127 11 -66 31 -178 43 -250 21 -125 23
-130 46 -130 27 0 30 12 69 265 10 63 20 108 23 100 3 -8 18 -95 34 -192 26
-171 28 -178 50 -178 18 0 24 7 29 34 4 19 4 45 0 58 -4 15 -3 19 3 10 6 -9
11 4 16 41 3 31 17 113 31 184 39 203 39 183 7 183 l-28 0 -22 -162 c-12 -90
-22 -176 -22 -192 0 -24 -2 -27 -15 -16 -8 7 -15 26 -15 42 0 35 -40 296 -49
319 -4 12 -12 14 -27 9 -18 -7 -23 -26 -42 -156 -12 -82 -23 -165 -25 -184 -3
-56 -21 -41 -29 25 -4 33 -15 116 -25 184 -18 121 -19 125 -46 132 -15 4 -27
4 -27 1z m227 -194 c-3 -7 -5 -2 -5 12 0 14 2 19 5 13 2 -7 2 -19 0 -25z m20
-50 c-3 -8 -6 -5 -6 6 -1 11 2 17 5 13 3 -3 4 -12 1 -19z m-100 -90 c-2 -13
-4 -3 -4 22 0 25 2 35 4 23 2 -13 2 -33 0 -45z m110 20 c-3 -7 -5 -2 -5 12 0
14 2 19 5 13 2 -7 2 -19 0 -25z m-180 0 c-3 -8 -6 -5 -6 6 -1 11 2 17 5 13 3
-3 4 -12 1 -19z m0 -50 c-3 -8 -6 -5 -6 6 -1 11 2 17 5 13 3 -3 4 -12 1 -19z
m200 -130 c-3 -8 -6 -5 -6 6 -1 11 2 17 5 13 3 -3 4 -12 1 -19z"/>
<path d="M1434 3811 c-50 -31 -59 -67 -59 -246 0 -151 1 -162 24 -203 32 -55
78 -71 142 -51 33 11 47 23 63 54 19 36 21 57 21 200 0 144 -2 164 -21 200
-13 23 -28 39 -38 39 -9 -1 -14 2 -11 6 16 25 -80 26 -121 1z m100 -37 c26
-25 31 -61 31 -219 0 -160 -7 -189 -48 -204 -30 -12 -56 4 -73 44 -15 36 -20
262 -8 323 12 61 64 90 98 56z m-117 -96 c-3 -8 -6 -5 -6 6 -1 11 2 17 5 13 3
-3 4 -12 1 -19z m0 -40 c-3 -8 -6 -5 -6 6 -1 11 2 17 5 13 3 -3 4 -12 1 -19z
m200 -60 c-3 -8 -6 -5 -6 6 -1 11 2 17 5 13 3 -3 4 -12 1 -19z m-200 -75 c-2
-16 -4 -3 -4 27 0 30 2 43 4 28 2 -16 2 -40 0 -55z m200 35 c-3 -8 -6 -5 -6 6
-1 11 2 17 5 13 3 -3 4 -12 1 -19z"/>
<path d="M2080 3569 l0 -259 85 0 c79 0 85 1 85 21 0 19 -5 20 -57 18 l-58 -3
-3 236 -2 236 -25 4 -25 5 0 -258z"/>
<path d="M2340 3568 l0 -258 63 0 c36 0 68 5 75 12 7 7 12 9 12 4 0 -4 13 2
30 14 41 29 62 104 61 226 0 110 -20 190 -55 223 -19 18 -41 24 -105 30 l-81
7 0 -258z m33 234 c-9 -6 -13 -69 -16 -237 l-2 -230 -3 238 c-2 220 -1 237 16
237 12 0 13 -3 5 -8z m94 -34 c44 -21 65 -152 48 -298 -6 -51 -13 -70 -35 -92
-17 -16 -39 -28 -54 -28 l-26 0 0 213 c0 118 3 216 6 220 6 6 26 1 61 -15z"/>
<path d="M2734 3811 c-48 -29 -70 -117 -41 -168 7 -12 37 -49 67 -84 62 -70
68 -81 69 -125 2 -63 -57 -102 -110 -73 -18 9 -20 8 -17 -17 2 -22 10 -30 36
-36 95 -25 171 65 143 170 -13 45 -59 104 -75 95 -6 -3 -8 -3 -4 2 4 4 -8 25
-27 47 -39 43 -47 96 -20 135 18 26 59 37 85 23 17 -9 20 -8 20 13 0 40 -73
50 -126 18z"/>
<path d="M3732 3817 c-37 -21 -51 -51 -63 -134 -12 -82 -6 -235 11 -292 21
-74 92 -107 164 -77 47 20 64 59 72 170 l7 86 -62 0 c-54 0 -61 -2 -61 -19 0
-14 8 -21 28 -23 25 -3 27 -7 30 -52 2 -27 1 -60 -2 -72 -14 -55 -73 -71 -110
-31 -21 23 -22 31 -19 193 3 189 4 205 15 198 5 -3 11 2 14 10 4 10 18 16 35
16 22 0 34 -8 51 -35 26 -39 28 -40 51 -22 16 11 16 14 -3 45 -30 50 -105 68
-158 39z m-15 -119 c-3 -8 -6 -5 -6 6 -1 11 2 17 5 13 3 -3 4 -12 1 -19z m-30
-270 c-3 -8 -6 -5 -6 6 -1 11 2 17 5 13 3 -3 4 -12 1 -19z"/>
<path d="M4088 3815 c-47 -27 -63 -90 -63 -255 0 -137 1 -147 26 -190 15 -28
32 -44 42 -44 9 1 15 -2 12 -6 -8 -12 43 -21 81 -14 62 11 75 41 88 202 l6 62
-60 0 c-53 0 -60 -2 -60 -20 0 -15 7 -20 29 -20 29 0 29 -1 33 -64 1 -35 0
-62 -4 -59 -5 2 -8 -3 -8 -11 0 -49 -77 -62 -106 -18 -17 24 -19 47 -19 189 0
149 2 164 21 190 31 41 74 39 94 -4 15 -33 33 -42 45 -23 4 6 11 8 16 5 20
-13 7 27 -19 56 -23 26 -37 32 -78 35 -32 3 -58 -1 -76 -11z m-21 -207 c-2
-13 -4 -3 -4 22 0 25 2 35 4 23 2 -13 2 -33 0 -45z"/>
<path d="M4724 3820 c-57 -23 -80 -141 -37 -197 11 -15 26 -27 33 -25 6 1 9
-2 5 -8 -4 -6 7 -23 22 -38 52 -48 64 -76 61 -135 -2 -36 -7 -53 -14 -50 -7 2
-15 0 -19 -6 -8 -14 -51 -14 -76 0 -18 9 -20 8 -17 -17 2 -21 10 -30 33 -36
72 -20 139 23 151 98 9 60 -10 106 -70 172 -29 31 -58 67 -64 79 -18 33 -14
77 9 107 22 28 48 33 80 16 16 -9 19 -7 19 13 0 17 -7 27 -22 31 -31 8 -69 6
-94 -4z m-30 -176 c3 -8 2 -12 -4 -9 -6 3 -10 10 -10 16 0 14 7 11 14 -7z"/>
<path d="M4940 3803 c0 -20 5 -23 40 -23 l40 0 0 -235 0 -235 30 0 30 0 0 235
0 235 40 0 c33 0 40 3 40 19 0 18 -9 20 -110 23 -108 3 -110 3 -110 -19z"/>
<path d="M6350 3823 c-23 -3 -29 -15 -55 -98 -16 -51 -33 -91 -36 -89 -4 2 -9
18 -13 36 -3 18 -16 59 -28 91 -20 50 -26 57 -50 57 l-27 0 24 -65 c14 -36 25
-69 25 -73 0 -4 5 0 11 8 8 12 9 10 4 -8 -4 -14 0 -42 10 -68 l16 -43 -41
-113 c-59 -159 -57 -148 -23 -148 28 0 30 4 58 95 16 52 32 91 35 87 3 -4 19
-46 35 -94 28 -84 31 -88 58 -88 22 0 28 4 23 16 -3 9 -6 20 -6 25 0 6 -5 7
-12 3 -6 -4 -8 -3 -5 3 4 5 -10 55 -29 109 -31 87 -34 103 -25 135 6 21 10 43
8 50 -2 8 -2 10 1 5 2 -4 17 21 32 57 25 59 45 119 38 116 -2 -1 -14 -4 -28
-6z"/>
<path d="M6673 3805 c-24 -19 -33 -36 -38 -69 -11 -69 2 -100 66 -172 84 -92
98 -137 58 -188 -22 -28 -56 -34 -90 -15 -19 9 -20 8 -17 -17 2 -22 10 -30 35
-37 44 -13 81 -1 115 35 25 26 28 38 28 93 0 60 -2 66 -46 119 -27 34 -50 54
-57 50 -7 -4 -9 -4 -5 1 4 4 -2 19 -12 33 -29 36 -27 102 3 130 26 24 48 27
78 12 16 -9 19 -7 19 13 0 44 -87 51 -137 12z"/>
<path d="M7274 3815 c-55 -29 -69 -77 -69 -245 1 -127 4 -151 23 -193 26 -57
72 -82 132 -72 78 13 103 77 102 261 -1 138 -14 203 -47 234 -31 29 -99 36
-141 15z m109 -67 c15 -30 18 -63 18 -181 1 -190 -20 -241 -88 -216 -36 13
-48 71 -48 229 0 129 2 149 20 175 11 17 19 33 18 36 -1 4 12 3 30 0 24 -5 37
-16 50 -43z m-136 -215 c-2 -16 -4 -5 -4 22 0 28 2 40 4 28 2 -13 2 -35 0 -50z
m200 -45 c-3 -8 -6 -5 -6 6 -1 11 2 17 5 13 3 -3 4 -12 1 -19z"/>
<path d="M7581 3573 l-1 -263 31 0 31 0 -4 125 c-2 69 1 125 5 125 4 0 17 -22
29 -50 11 -28 25 -47 31 -43 6 3 7 1 3 -5 -4 -7 3 -43 15 -82 21 -65 25 -70
51 -70 15 0 28 2 28 4 0 10 -63 182 -70 191 -19 24 -13 51 18 82 29 29 32 37
32 96 0 70 -7 100 -21 91 -5 -3 -6 1 -3 9 7 20 -39 37 -101 37 -45 0 -55 -3
-56 -17 -1 -12 -4 -10 -9 7 -4 14 -8 -90 -9 -237z m119 197 c25 -25 34 -61 27
-112 -6 -47 -21 -65 -57 -70 -25 -3 -25 -3 -28 86 -2 49 -1 95 2 103 8 19 33
16 56 -7z m-98 -218 c2 -83 0 -152 -4 -152 -5 0 -8 73 -7 163 1 201 8 195 11
-11z m25 -144 c-3 -8 -6 -5 -6 6 -1 11 2 17 5 13 3 -3 4 -12 1 -19z"/>
<path d="M7910 3568 l0 -258 90 0 c84 0 90 1 90 21 0 19 -5 20 -57 18 l-58 -3
0 105 0 104 37 -3 c28 -3 37 1 41 15 4 16 5 16 6 1 0 -10 5 -18 10 -18 6 0 9
9 8 20 -1 17 -8 20 -54 20 l-54 0 3 98 3 97 58 0 c47 0 57 3 57 17 0 14 -14
17 -90 20 l-90 3 0 -257z m47 -80 c-3 -8 -6 -5 -6 6 -1 11 2 17 5 13 3 -3 4
-12 1 -19z m-30 -65 c-2 -16 -4 -3 -4 27 0 30 2 43 4 28 2 -16 2 -40 0 -55z
m0 -65 c-3 -7 -5 -2 -5 12 0 14 2 19 5 13 2 -7 2 -19 0 -25z"/>
<path d="M1750 3565 l0 -255 25 0 25 0 0 125 c0 79 4 125 10 125 6 0 13 -8 16
-17 3 -10 16 -45 29 -78 13 -33 31 -81 40 -107 16 -42 21 -48 46 -48 l28 0
-31 83 c-69 184 -65 167 -45 178 9 6 15 15 11 20 -3 5 0 8 7 7 7 -2 18 8 26
22 21 40 15 159 -7 145 -4 -3 -7 3 -6 12 2 26 -42 43 -111 43 l-63 0 0 -255z
m103 214 c12 -7 25 -17 29 -23 10 -14 10 -128 0 -143 -10 -15 -61 -35 -73 -27
-10 6 -13 187 -2 197 9 10 21 9 46 -4z m84 -61 c-3 -8 -6 -5 -6 6 -1 11 2 17
5 13 3 -3 4 -12 1 -19z"/>
<path d="M3170 3565 l0 -255 60 0 c88 0 115 17 135 85 13 46 14 62 4 96 -7 22
-22 45 -33 51 -35 18 -36 30 -5 59 26 24 29 34 29 88 0 105 -26 131 -130 131
l-60 0 0 -255z m114 206 c20 -22 32 -87 22 -125 -8 -34 -33 -56 -62 -56 -24 0
-24 1 -24 93 0 52 3 97 7 100 12 13 40 7 57 -12z m-77 -73 c-3 -7 -5 -2 -5 12
0 14 2 19 5 13 2 -7 2 -19 0 -25z m92 -185 c15 -30 17 -48 12 -85 -9 -58 -25
-78 -62 -78 l-29 0 0 100 0 100 30 0 c24 0 33 -7 49 -37z m58 -85 c-3 -8 -6
-5 -6 6 -1 11 2 17 5 13 3 -3 4 -12 1 -19z"/>
<path d="M3490 3565 l0 -255 30 0 31 0 -1 255 -1 255 -30 0 -29 0 0 -255z"/>
<path d="M4390 3565 l0 -255 90 0 c83 0 90 1 90 20 0 18 -7 20 -60 20 l-61 0
3 103 3 102 53 -3 c47 -4 52 -2 52 17 0 19 -6 21 -55 21 l-56 0 3 98 3 97 58
3 c42 2 57 7 57 17 0 12 -18 15 -90 15 l-90 0 0 -255z"/>
<path d="M5420 3565 l0 -255 60 0 c99 0 139 34 142 120 1 42 -11 100 -21 100
-4 0 -17 10 -30 21 l-23 21 31 27 c28 23 31 32 32 86 2 70 -18 119 -53 129
-13 3 -49 6 -80 6 l-58 0 0 -255z m110 207 c13 -11 23 -33 27 -59 10 -74 -15
-123 -63 -123 -24 0 -24 1 -24 93 0 52 3 97 7 100 11 12 30 8 53 -11z m-73
-129 c-2 -21 -4 -4 -4 37 0 41 2 58 4 38 2 -21 2 -55 0 -75z m83 -113 c29 -29
29 -131 -1 -161 -11 -11 -30 -19 -42 -17 -20 3 -22 9 -25 87 -2 46 -1 90 2 98
8 19 43 16 66 -7z m-83 -133 c-2 -23 -3 -1 -3 48 0 50 1 68 3 42 2 -26 2 -67
0 -90z"/>
<path d="M5755 3733 c-6 -94 -22 -284 -30 -370 -5 -53 -5 -53 23 -53 l29 0 7
172 c3 94 9 174 11 177 10 9 17 -8 25 -61 4 -29 18 -106 31 -170 21 -103 26
-118 44 -118 18 0 23 16 48 153 16 83 30 162 33 175 9 45 24 20 24 -40 0 -35
3 -114 7 -175 l6 -113 29 0 c27 0 28 2 23 38 -2 20 -12 125 -20 232 -20 244
-19 240 -50 240 -17 0 -26 -7 -29 -22 -20 -90 -46 -232 -51 -281 -7 -55 -21
-83 -29 -55 -2 7 -18 91 -36 186 l-33 172 -27 0 -28 0 -7 -87z m22 -160 c-3
-10 -5 -2 -5 17 0 19 2 27 5 18 2 -10 2 -26 0 -35z m170 25 c-3 -8 -6 -5 -6 6
-1 11 2 17 5 13 3 -3 4 -12 1 -19z m-6 -60 c-3 -21 -6 -26 -9 -15 -3 17 3 47
11 47 2 0 1 -15 -2 -32z m-84 -25 c-3 -10 -5 -4 -5 12 0 17 2 24 5 18 2 -7 2
-21 0 -30z m70 -55 c-3 -8 -6 -5 -6 6 -1 11 2 17 5 13 3 -3 4 -12 1 -19z m120
-80 c-3 -8 -6 -5 -6 6 -1 11 2 17 5 13 3 -3 4 -12 1 -19z"/>
<path d="M6907 3800 c4 -16 14 -20 44 -20 l39 0 0 -235 0 -235 25 0 25 0 0
229 c0 127 4 232 9 235 4 3 22 7 39 8 20 1 32 9 35 20 5 17 -4 18 -108 18
-108 0 -113 -1 -108 -20z"/>
</g>
</svg>
